HIERARCHY
ROOT Hips
{
	OFFSET 0.000000 88.474243 0.000000
	CHANNELS 6 Xposition Yposition Zposition Zrotation Yrotation Xrotation 
	JOINT Hips_Spine
	{
		OFFSET 0.000000 0.000000 0.000000
		CHANNELS 3 Zrotation Yrotation Xrotation
		JOINT Spine
		{
			OFFSET 0.005100 8.711998 -0.691000
			CHANNELS 3 Zrotation Yrotation Xrotation
			JOINT Spine1
			{
				OFFSET -0.009200 8.660301 -1.275000
				CHANNELS 3 Zrotation Yrotation Xrotation
				JOINT Spine2
				{
					OFFSET 0.006300 9.852501 -1.857000
					CHANNELS 3 Zrotation Yrotation Xrotation
					JOINT Spine2_Neck
					{
						OFFSET 0.000000 0.000000 0.000000
						CHANNELS 3 Zrotation Yrotation Xrotation
						JOINT Neck
						{
							OFFSET 0.016300 11.420799 -0.263300
							CHANNELS 3 Zrotation Yrotation Xrotation
							End Site #name: Head
							{
								OFFSET -0.019200 9.262405 2.362500
							}
						}
					}
					JOINT Spine2_LeftShoulder
					{
						OFFSET 0.000000 0.000000 0.000000
						CHANNELS 3 Zrotation Yrotation Xrotation
						JOINT LeftShoulder
						{
							OFFSET 5.616900 6.732201 -0.345700
							CHANNELS 3 Zrotation Yrotation Xrotation
							JOINT LeftArm
							{
								OFFSET 10.664888 -0.183372 -2.440700
								CHANNELS 3 Zrotation Yrotation Xrotation
								JOINT LeftForeArm
								{
									OFFSET 27.459126 0.000000 0.000000
									CHANNELS 3 Zrotation Yrotation Xrotation
									End Site #name: LeftHand
									{
										OFFSET 21.306858 0.000000 0.000000
									}
								}
							}
						}
					}
					JOINT Spine2_RightShoulder
					{
						OFFSET 0.000000 0.000000 0.000000
						CHANNELS 3 Zrotation Yrotation Xrotation
						JOINT RightShoulder
						{
							OFFSET -5.580300 6.737503 -0.344400
							CHANNELS 3 Zrotation Yrotation Xrotation
							JOINT RightArm
							{
								OFFSET -10.679335 -0.188484 -2.383900
								CHANNELS 3 Zrotation Yrotation Xrotation
								JOINT RightForeArm
								{
									OFFSET -27.503529 0.000000 0.000000
									CHANNELS 3 Zrotation Yrotation Xrotation
									End Site #name: RightHand
									{
										OFFSET -21.306808 0.000000 0.000000
									}
								}
							}
						}
					}
				}
			}
		}
	}
	JOINT Hips_LeftUpLeg
	{
		OFFSET 0.000000 0.000000 0.000000
		CHANNELS 3 Zrotation Yrotation Xrotation
		JOINT LeftUpLeg
		{
			OFFSET 6.857700 -6.739601 0.312100
			CHANNELS 3 Zrotation Yrotation Xrotation
			JOINT LeftLeg
			{
				OFFSET -0.367590 -34.731552 -4.572400
				CHANNELS 3 Zrotation Yrotation Xrotation
				End Site #name: LeftFoot
				{
					OFFSET 0.367590 -34.656704 -6.067400
				}
			}
		}
	}
	JOINT Hips_RightUpLeg
	{
		OFFSET 0.000000 0.000000 0.000000
		CHANNELS 3 Zrotation Yrotation Xrotation
		JOINT RightUpLeg
		{
			OFFSET -6.876100 -6.733299 0.301000
			CHANNELS 3 Zrotation Yrotation Xrotation
			JOINT RightLeg
			{
				OFFSET 0.347353 -34.795158 -4.515900
				CHANNELS 3 Zrotation Yrotation Xrotation
				End Site #name: RightFoot
				{
					OFFSET -0.347353 -34.589367 -6.070300
				}
			}
		}
	}
}
MOTION
Frames: 6
Frame Time: 0.041667
0.139889 0.004536 0.038765 119.189103 86.995279 112.338596 0.000000 -0.000000 0.000000 -2.741458 2.926950 4.628771 -0.136247 1.126849 2.369516 0.000000 0.000000 0.000000 0.847116 0.626658 0.775354 -3.069297 -2.273115 -2.329385 -0.562006 1.369063 2.137468 -15.554545 0.397656 1.153151 -55.056091 -2.001647 21.117810 -0.127516 -47.131735 0.224179 -0.189165 1.140106 2.371590 17.299428 11.043982 5.091174 45.729691 24.704368 -22.326128 -179.503315 51.589168 -179.886114 0.000000 0.000000 0.000000 -6.757836 3.261048 -8.615052 1.780555 5.003144 12.062798 -0.000000 -0.000000 -0.000000 -3.411587 -15.118103 -7.175627 -8.686295 -9.880678 15.331895 
0.563075 -0.106379 -0.562635 164.146774 76.471318 157.324854 0.000000 0.000000 0.000000 -3.460312 3.249060 5.913782 -0.265647 1.427492 1.979445 0.000000 0.000000 0.000000 -0.122540 0.960423 1.298964 -2.388442 -1.647529 -1.184236 -0.036370 1.222789 2.324052 -13.874592 2.640267 0.753689 -50.734457 2.027748 26.605590 -0.353199 -45.750334 0.499484 -0.226781 1.058271 1.944090 15.015597 12.529911 3.655238 42.063265 38.655467 -25.706413 179.313999 51.005835 179.694994 0.000000 -0.000000 -0.000000 -8.890012 3.758812 -7.800428 1.407393 4.066644 11.288240 -0.000000 -0.000000 -0.000000 -7.787367 -19.504986 -6.448414 -9.140687 -9.488886 16.758470 
0.793294 -0.181937 -1.241601 166.406010 71.092904 159.977998 -0.000000 0.000000 0.000000 -3.688912 3.632408 7.757419 -0.081256 1.526052 1.717252 0.000000 0.000000 0.000000 -0.106687 1.084425 0.948041 -2.099254 -1.703683 -0.999012 -0.103160 1.367101 1.749580 -15.069429 4.660899 0.401331 -52.678627 2.232004 25.625515 -0.295052 -38.273948 0.427098 -0.081962 1.458783 1.598919 15.956138 12.431590 3.617687 43.479251 40.890624 -19.163700 179.404944 53.638932 179.797263 0.000000 0.000000 -0.000000 -9.645285 3.729990 -8.428608 1.323812 3.701950 13.225956 -0.000000 -0.000000 -0.000000 -10.585516 -20.446563 -5.545630 -9.524048 -10.359903 17.358198 
0.958357 -0.219107 -1.956298 168.469425 66.496461 162.366102 -0.000000 0.000000 0.000000 -3.978640 3.589981 8.398241 -0.061727 1.447658 1.725243 0.000000 0.000000 0.000000 -0.042884 1.087751 0.891127 -2.051257 -1.915052 0.042988 -0.077833 1.309557 1.675256 -14.759530 4.158423 0.553984 -54.367256 0.007509 24.538123 -0.266653 -31.707169 0.413922 -0.035642 1.541515 1.622917 15.830391 12.143675 3.542596 41.906009 42.194275 -19.234315 179.424682 53.533272 179.836006 0.000000 0.000000 -0.000000 -10.072769 4.196556 -8.877531 1.426273 3.930865 14.462014 -0.000000 -0.000000 0.000000 -11.649821 -21.419025 -4.607027 -9.895810 -10.724501 17.727570 
1.126393 -0.231655 -2.662955 170.355576 61.997564 164.500202 -0.000000 0.000000 0.000000 -4.131186 3.652886 8.745394 -0.123761 1.524512 1.720849 0.000000 0.000000 0.000000 -0.133393 1.145887 0.856457 -2.031646 -1.939082 0.471513 -0.140848 1.368055 1.631011 -14.663782 3.802542 0.655532 -55.409619 -0.721771 24.702328 -0.235507 -28.308357 0.390574 -0.062438 1.638590 1.669555 15.926528 12.097439 3.535867 41.259679 43.105851 -19.338435 179.409414 52.670488 179.845563 0.000000 0.000000 -0.000000 -10.291399 4.536420 -9.066387 1.544509 4.050238 15.150568 -0.000000 -0.000000 0.000000 -12.546860 -21.307352 -3.841993 -10.101836 -10.697996 17.616378 
1.300030 -0.225087 -3.384975 171.690346 58.902478 165.999855 -0.000000 0.000000 0.000000 -4.152081 3.775957 8.874745 -0.204331 1.607721 1.691827 0.000000 0.000000 0.000000 -0.213780 1.212598 0.828362 -2.067716 -1.961143 0.587496 -0.191729 1.454317 1.611533 -14.667923 3.639357 0.713290 -55.450082 -0.520002 25.166361 -0.206550 -28.131812 0.339767 -0.092717 1.710520 1.676206 15.915957 12.144141 3.525985 41.549670 43.627860 -19.344478 179.374556 52.834666 179.879604 -0.000000 0.000000 -0.000000 -10.437655 4.704198 -8.971016 1.658240 4.120682 15.471903 -0.000000 0.000000 0.000000 -13.665192 -20.210408 -1.944587 -10.511543 -10.323833 18.212001 
